<svg width="114" height="114" xmlns="http://www.w3.org/2000/svg">

 <g>
  <title>background</title>
  <rect fill="none" id="canvas_background" height="116" width="116" y="-1" x="-1"/>
 </g>
 <g>
  <title>Layer 1</title>
  <g fill="none" id="svg_1">
   <g id="svg_2">
    <g id="svg_3">
     <path stroke="#fff" fill="#ffffff" id="svg_4" d="m19.517189,8.763045c1.396433,0 2.52989,-0.825926 2.52989,-1.843481c0,-1.017556 -1.133457,-1.843482 -2.52989,-1.843482l-0.02787,0c-1.396431,0 -2.514761,0.825926 -2.514761,1.843482c0,1.017554 1.14353,1.843481 2.542631,1.843481z"/>
     <path stroke="#fff" fill="#ffffff" id="svg_5" d="m85.296623,12.450225c1.396431,0 2.529877,-0.825928 2.529877,-1.843483c0,-1.017554 -1.133446,-1.843481 -2.529877,-1.843481l-0.02787,0c-1.396431,0 -2.514763,0.825927 -2.514763,1.843481c0,1.017555 1.143524,1.843483 2.542633,1.843483z"/>
     <path stroke="#fff" fill="#ffffff" id="svg_6" d="m85.39299,87.053207c0.29084,0.997459 1.631836,1.629601 3.000694,1.419609l17.436745,-2.700737l0.44532,1.522881l-2.924797,0.597351c-1.346039,0.276543 -2.127869,1.296028 -1.750732,2.27491c0.313667,0.812973 1.33091,1.345726 2.433807,1.345726c0.227707,0 0.460442,-0.023979 0.685776,-0.07l2.610825,-0.534698l0.604538,2.075943c0.255554,0.866547 1.305412,1.460007 2.474426,1.460007c0.174644,0 0.349266,-0.012962 0.528625,-0.040619c1.366203,-0.211937 2.236679,-1.191032 1.948204,-2.186554l-2.107391,-7.213829c-0.579346,-1.987366 -3.250938,-3.261147 -5.998741,-2.839005l-17.439125,2.702675c-1.366486,0.211937 -2.236664,1.190819 -1.948174,2.18634z"/>
     <path stroke="#fff" fill="#ffffff" id="svg_7" d="m38.416187,6.919565c2.092281,0 3.792309,-1.240726 3.792309,-2.76533s-1.700035,-2.76533 -3.792309,-2.76533c-2.094948,0 -3.794983,1.240726 -3.794983,2.76533s1.700035,2.76533 3.794983,2.76533z"/>
     <path stroke="#fff" fill="#ffffff" id="svg_8" d="m57.388416,78.606209c16.743549,0 30.362492,-9.923866 30.362492,-22.122646c0,-1.017551 -1.133453,-1.843479 -2.529884,-1.843479c-1.399101,0 -2.529892,0.825928 -2.529892,1.843479c0,10.165409 -11.352028,18.435467 -25.302422,18.435467c-1.396435,0 -2.527519,0.82592 -2.527519,1.843483c-0.000294,1.017769 1.130779,1.843697 2.527225,1.843697z"/>
     <path stroke="#fff" fill="#ffffff" id="svg_9" d="m16.911108,23.511545c2.788122,0 5.060066,-1.653582 5.060066,-3.68718c0,-2.033382 -2.271944,-3.68718 -5.060066,-3.68718c-2.790498,0 -5.060071,1.65358 -5.060071,3.68718c0.000299,2.033598 2.269573,3.68718 5.060071,3.68718z"/>
     <path stroke="#fff" fill="#ffffff" id="svg_10" d="m34.094944,104.419472l-25.14796,3.897179l-0.359336,-1.231438l3.053772,-0.625c1.346032,-0.276527 2.127854,-1.294098 1.750732,-2.273193c-0.376829,-0.980827 -1.78631,-1.546638 -3.119593,-1.277664l-2.737422,0.562355l-0.688137,-2.368896c-0.28848,-0.995514 -1.634512,-1.638885 -3.000702,-1.421333c-1.36886,0.211929 -2.239037,1.191032 -1.950563,2.186546l2.102361,7.215569c0.280773,0.964195 1.060223,1.788177 2.196046,2.324829c0.829856,0.392761 1.775932,0.595398 2.74247,0.595398c0.354295,0 0.708295,-0.027649 1.062589,-0.082947l25.14559,-3.895447c1.368866,-0.211945 2.239044,-1.191032 1.950562,-2.186554c-0.293514,-0.997032 -1.644291,-1.636734 -3.000408,-1.419403z"/>
     <path stroke="#fff" fill="#ffffff" id="svg_11" d="m108.990044,97.49514l-40.717461,-6.306892c-1.368858,-0.213882 -2.709549,0.422134 -3.000694,1.419601c-0.28849,0.995514 0.581993,1.974403 1.948181,2.186562l40.715073,6.306892l-0.523582,1.801132l-10.175583,-1.483978c-1.371239,-0.199196 -2.704506,0.446114 -2.977859,1.445305c-0.275734,0.999191 0.614891,1.970734 1.983452,2.169922l10.117485,1.474922l-0.52626,1.80674l-98.985793,-15.333099l0.637438,-2.184608l4.457918,0.709686c0.182039,0.029602 0.361708,0.042358 0.544041,0.042358c1.161322,0 2.211173,-0.588066 2.46674,-1.448997c0.298558,-0.993561 -0.566582,-1.978073 -1.9304,-2.195625l-4.488153,-0.715309l0.412406,-1.421341l15.028111,2.328484c1.358488,0.213898 2.707186,-0.424072 3.000702,-1.419594c0.288481,-0.997467 -0.581991,-1.976349 -1.950558,-2.186562l-15.028116,-2.326546c-2.712223,-0.420425 -5.416737,0.851631 -5.998734,2.838997l-2.099984,7.211899c-0.584368,1.98735 1.163693,3.950745 3.893707,4.374832l98.990824,15.332893c0.351631,0.05336 0.700897,0.079285 1.047485,0.079285c2.335098,0 4.44249,-1.191032 4.951248,-2.921951l1.039764,-3.559929c0.010094,-0.031342 0.037964,-0.055313 0.048042,-0.088585c0.007698,-0.025703 -0.005051,-0.047958 0,-0.073662l1.016937,-3.487999c0.579315,-1.987366 -1.166367,-3.950745 -3.896378,-4.374832z"/>
     <path stroke="#fff" fill="#ffffff" id="svg_12" d="m43.928986,94.842361c-0.298561,0.993576 0.564205,1.978065 1.930397,2.195625l24.983711,3.993103c0.179665,0.029587 0.361702,0.044289 0.544037,0.044289c1.161331,0 2.208801,-0.588066 2.466743,-1.44899c0.301224,-0.993576 -0.561546,-1.978073 -1.927727,-2.195633l-24.983711,-3.993088c-1.343662,-0.221443 -2.714893,0.409172 -3.013451,1.404694z"/>
     <path stroke="#fff" fill="#ffffff" id="svg_13" d="m57.388416,89.667519c24.259983,0 45.542408,-15.506149 45.542408,-33.183956c0,-15.260952 -8.994102,-24.106331 -18.51683,-33.47151c-6.049431,-5.949343 -12.301071,-12.099395 -17.100533,-20.489363c-0.323761,-0.566028 -1.014565,-0.978884 -1.841751,-1.098787c-0.824814,-0.117959 -1.682533,0.069997 -2.279652,0.505105c-8.657589,6.308625 -13.836552,17.274022 -16.404388,24.194909c-1.072674,-3.012264 -2.046623,-7.064554 -2.046623,-11.829996c0,-0.744695 -0.617271,-1.417663 -1.563648,-1.703485c-0.943703,-0.285822 -2.029129,-0.127249 -2.755215,0.400108c-13.034567,9.498045 -28.571147,24.753376 -28.571147,43.493019c0.000299,17.677807 21.280047,33.183956 45.537379,33.183956zm-17.451874,-70.969593c1.037395,8.882326 4.882782,14.580631 5.070152,14.855434c0.485641,0.709698 1.530743,1.10981 2.621208,1.001137c1.077717,-0.112553 1.938103,-0.713367 2.130226,-1.495003c0.045654,-0.182556 4.354149,-17.049124 14.499485,-26.451243c4.756477,7.451699 10.50972,13.109391 16.090714,18.597709c9.401459,9.247219 17.522713,17.23362 17.522713,31.277821c0,15.437889 -19.293602,29.496773 -40.48233,29.496773c-21.183697,0 -40.477308,-14.058884 -40.477308,-29.496773c-0.000294,-15.593006 11.721149,-28.737608 23.025141,-37.785854z"/>
     <path stroke="#fff" fill="#ffffff" id="svg_14" d="m46.342655,77.096291c0.303593,0.086632 0.614902,0.127243 0.923538,0.127243c1.009533,0 1.965679,-0.444397 2.355553,-1.1744c0.50848,-0.947548 -0.133999,-2.016747 -1.434376,-2.387474c-3.28651,-0.934593 -6.2211,-2.3395 -8.730827,-4.173706c-0.986694,-0.720924 -2.588295,-0.724602 -3.577354,-0.005615c-0.989368,0.720932 -0.994408,1.887779 -0.005043,2.608704c3.004845,2.197571 6.529137,3.882484 10.46851,5.005249z"/>
    </g>
   </g>
  </g>
  <g id="svg_15"/>
  <g id="svg_16"/>
  <g id="svg_17"/>
  <g id="svg_18"/>
  <g id="svg_19"/>
  <g id="svg_20"/>
  <g id="svg_21"/>
  <g id="svg_22"/>
  <g id="svg_23"/>
  <g id="svg_24"/>
  <g id="svg_25"/>
  <g id="svg_26"/>
  <g id="svg_27"/>
  <g id="svg_28"/>
  <g id="svg_29"/>
 </g>
</svg>